<?xml version="1.0" encoding="UTF-8"?>
<svg id="_レイヤー_1" data-name="レイヤー 1" xmlns="http://www.w3.org/2000/svg" viewBox="0 0 1920 150">
  <defs>
    <style>
      .cls-1 {
        fill: #404040;
        stroke-width: 0px;
      }
    </style>
  </defs>
  <g>
    <path class="cls-1" d="M54.56,8.22L0,136.64h19.48l11.86-28.97h44.9l11.35,28.97h22.7L55.74,8.22h-1.19ZM38.29,90.73l15.93-38.97,15.42,38.97h-31.34Z"/>
    <rect class="cls-1" x="131.3" y="13.3" width="19.82" height="123.34"/>
    <path class="cls-1" d="M260.49,74.04c3.22-6.49,4.83-13.52,4.83-21.09,0-12.42-4.15-22.14-12.45-29.14-8.3-7-19.34-10.5-33.12-10.5h-34.73v123.34h19.82v-42.87h19.82l27.79,42.87h22.87l-29.99-47.61c6.89-3.5,11.94-8.5,15.16-14.99ZM239.65,68.28c-3.56,4.35-9.29,6.52-17.2,6.52h-17.62v-42.53h18.3c5.31,0,9.6,1.16,12.88,3.47,3.27,2.32,5.59,5.08,6.95,8.3s2.03,6.41,2.03,9.57c0,5.42-1.78,10.31-5.34,14.66Z"/>
    <path class="cls-1" d="M333.43,13.3h-34.9v123.34h19.82v-42.87h17.79c9.83,0,17.87-1.95,24.14-5.84,6.27-3.9,10.81-8.92,13.64-15.08,2.82-6.16,4.23-12.79,4.23-19.91,0-12.42-3.95-22.14-11.86-29.14-7.91-7-18.87-10.5-32.87-10.5ZM356.38,62.86c-1.41,3.33-3.79,6.16-7.12,8.47-3.33,2.32-7.71,3.47-13.13,3.47h-17.79v-42.53h18.3c7.9,0,13.53,2.2,16.86,6.61,3.33,4.4,5,9.21,5,14.4,0,3.05-.71,6.24-2.12,9.57Z"/>
    <path class="cls-1" d="M488.87,20.58c-9.66-5.76-20.13-8.64-31.43-8.64s-21.94,2.88-31.6,8.64c-9.66,5.76-17.31,13.47-22.96,23.13-5.65,9.66-8.47,20.14-8.47,31.43s2.82,22.08,8.47,31.68c5.65,9.6,13.3,17.2,22.96,22.79,9.66,5.59,20.19,8.39,31.6,8.39s21.8-2.82,31.51-8.47c9.71-5.65,17.42-13.27,23.13-22.87,5.7-9.6,8.56-20.1,8.56-31.51s-2.88-21.63-8.64-31.34c-5.76-9.71-13.47-17.45-23.13-23.21ZM494.63,97.25c-3.78,6.72-8.89,12.03-15.33,15.93-6.44,3.9-13.55,5.85-21.35,5.85s-15.16-1.97-21.77-5.93c-6.61-3.95-11.83-9.26-15.67-15.93-3.84-6.66-5.76-14-5.76-22.03s1.89-15.42,5.68-22.2c3.78-6.78,8.92-12.14,15.42-16.1,6.49-3.95,13.69-5.93,21.6-5.93s14.97,1.98,21.52,5.93c6.55,3.95,11.75,9.32,15.59,16.1,3.84,6.78,5.76,14.18,5.76,22.2s-1.89,15.39-5.68,22.11Z"/>
    <path class="cls-1" d="M622.38,74.04c3.22-6.49,4.83-13.52,4.83-21.09,0-12.42-4.15-22.14-12.45-29.14-8.3-7-19.34-10.5-33.12-10.5h-34.73v123.34h19.82v-42.87h19.82l27.79,42.87h22.87l-29.99-47.61c6.89-3.5,11.94-8.5,15.16-14.99ZM601.54,68.28c-3.56,4.35-9.29,6.52-17.2,6.52h-17.62v-42.53h18.3c5.31,0,9.6,1.16,12.88,3.47,3.27,2.32,5.59,5.08,6.95,8.3s2.03,6.41,2.03,9.57c0,5.42-1.78,10.31-5.34,14.66Z"/>
    <polygon class="cls-1" points="651.61 32.27 682.61 32.27 682.61 136.64 702.27 136.64 702.27 32.27 734.12 32.27 734.12 13.3 651.61 13.3 651.61 32.27"/>
    <path class="cls-1" d="M848.31,13.3h-34.9v123.34h19.82v-42.87h17.79c9.83,0,17.87-1.95,24.14-5.84,6.27-3.9,10.81-8.92,13.64-15.08,2.82-6.16,4.23-12.79,4.23-19.91,0-12.42-3.95-22.14-11.86-29.14-7.91-7-18.86-10.5-32.87-10.5ZM871.27,62.86c-1.41,3.33-3.79,6.16-7.12,8.47-3.33,2.32-7.71,3.47-13.13,3.47h-17.79v-42.53h18.3c7.9,0,13.53,2.2,16.86,6.61,3.33,4.4,5,9.21,5,14.4,0,3.05-.71,6.24-2.12,9.57Z"/>
    <path class="cls-1" d="M958.6,8.22l-54.55,128.43h19.48l11.86-28.97h44.9l11.35,28.97h22.7l-54.56-128.43h-1.19ZM942.34,90.73l15.93-38.97,15.42,38.97h-31.34Z"/>
    <path class="cls-1" d="M1110.83,74.04c3.22-6.49,4.83-13.52,4.83-21.09,0-12.42-4.15-22.14-12.45-29.14-8.3-7-19.34-10.5-33.12-10.5h-34.73v123.34h19.82v-42.87h19.82l27.79,42.87h22.87l-29.99-47.61c6.89-3.5,11.94-8.5,15.16-14.99ZM1089.99,68.28c-3.56,4.35-9.29,6.52-17.2,6.52h-17.62v-42.53h18.3c5.31,0,9.6,1.16,12.88,3.47,3.27,2.32,5.59,5.08,6.95,8.3,1.36,3.22,2.03,6.41,2.03,9.57,0,5.42-1.78,10.31-5.34,14.66Z"/>
    <polygon class="cls-1" points="1242.9 13.3 1217.49 13.3 1171.06 62.94 1168.35 66.84 1168.86 60.57 1168.86 13.3 1148.87 13.3 1148.87 136.64 1168.86 136.64 1168.86 88.19 1177.5 79.71 1219.69 136.64 1244.76 136.64 1191.9 67.18 1242.9 13.3"/>
    <rect class="cls-1" x="1265.6" y="13.3" width="19.82" height="123.34"/>
    <polygon class="cls-1" points="1408.93 96.32 1320.32 9.06 1319.31 9.06 1319.31 136.64 1339.3 136.64 1338.79 54.81 1427.74 141.05 1428.25 141.05 1428.25 13.3 1408.59 13.3 1408.93 96.32"/>
    <path class="cls-1" d="M1517.37,93.61h23.21v20.5c-2.49,1.36-5.54,2.4-9.15,3.13-3.62.74-7.4,1.1-11.35,1.1-8.81,0-16.63-1.75-23.47-5.25-6.84-3.5-12.14-8.44-15.93-14.82-3.79-6.38-5.68-13.75-5.68-22.11,0-14,4.07-24.91,12.2-32.7,8.13-7.79,19.26-11.69,33.38-11.69,4.18,0,9.06.74,14.66,2.2,5.59,1.47,10.08,3.22,13.47,5.25l6.44-18.3c-4.86-2.71-10.48-4.88-16.86-6.52-6.38-1.64-13.13-2.46-20.25-2.46-11.52,0-22.11,2.54-31.77,7.62-9.66,5.08-17.34,12.6-23.04,22.53-5.71,9.94-8.56,21.86-8.56,35.75,0,11.52,2.65,21.83,7.96,30.92,5.31,9.09,12.88,16.24,22.7,21.43,9.83,5.2,21.23,7.79,34.22,7.79,7,0,14.71-1.33,23.13-3.98,8.41-2.65,14.32-5.56,17.7-8.73v-50.66h-43.03v18.98Z"/>
  </g>
  <g>
    <path class="cls-1" d="M1854.24,49.76c-4.52-2.73-9.47-4.09-14.85-4.09s-10.42,1.36-14.9,4.09c-4.48,2.73-8.03,6.43-10.64,11.11-2.61,4.68-3.92,9.78-3.92,15.31s1.32,10.6,3.97,15.2c2.65,4.6,6.25,8.26,10.81,10.99,4.56,2.73,9.56,4.09,15.02,4.09s10.29-1.34,14.73-4.03c4.44-2.69,7.97-6.35,10.58-10.99,2.61-4.64,3.92-9.72,3.92-15.25s-1.33-10.64-3.97-15.31c-2.65-4.68-6.24-8.38-10.75-11.11Z"/>
    <path class="cls-1" d="M1760.38,49c-2.26-1.6-5.22-2.4-8.88-2.4h-12.62v29.34h12.16c5.45,0,9.41-1.5,11.86-4.5,2.45-3,3.68-6.37,3.68-10.11,0-2.18-.47-4.38-1.4-6.61-.94-2.22-2.53-4.13-4.79-5.73Z"/>
    <path class="cls-1" d="M1680.07,46.6h-12.62v29.34h12.27c3.74,0,6.76-.8,9.06-2.4,2.3-1.6,3.93-3.55,4.91-5.84.97-2.3,1.46-4.5,1.46-6.61,0-3.58-1.15-6.9-3.45-9.94-2.3-3.04-6.18-4.56-11.63-4.56Z"/>
    <path class="cls-1" d="M1898.82,4.41h-263.09c-11.65,0-21.18,9.53-21.18,21.18v98.83c0,11.65,9.53,21.18,21.18,21.18h263.09c11.65,0,21.18-9.53,21.18-21.18V25.58c0-11.65-9.53-21.18-21.18-21.18ZM1705.79,74.6c-1.95,4.25-5.09,7.72-9.41,10.4-4.32,2.69-9.88,4.03-16.66,4.03h-12.27v29.57h-13.68V33.51h24.08c9.66,0,17.22,2.42,22.68,7.25,5.45,4.83,8.18,11.53,8.18,20.11,0,4.91-.97,9.49-2.92,13.73ZM1771.71,118.61l-19.17-29.57h-13.68v29.57h-13.68V33.51h23.96c9.51,0,17.13,2.42,22.85,7.25,5.73,4.83,8.59,11.53,8.59,20.11,0,5.22-1.11,10.07-3.33,14.55-2.22,4.48-5.71,7.93-10.46,10.35l20.69,32.85h-15.78ZM1877.09,97.92c-3.94,6.62-9.26,11.88-15.96,15.78-6.7,3.9-13.95,5.84-21.74,5.84s-15.14-1.93-21.8-5.79c-6.66-3.86-11.94-9.1-15.84-15.72-3.9-6.62-5.84-13.91-5.84-21.86s1.95-15.02,5.84-21.68c3.9-6.66,9.18-11.98,15.84-15.96,6.66-3.97,13.93-5.96,21.8-5.96s15.02,1.99,21.68,5.96c6.66,3.97,11.98,9.31,15.96,16.01,3.97,6.7,5.96,13.91,5.96,21.63s-1.97,15.12-5.9,21.74Z"/>
  </g>
</svg>