<?xml version="1.0" encoding="UTF-8"?>
<svg id="_レイヤー_1" data-name="レイヤー 1" xmlns="http://www.w3.org/2000/svg" viewBox="0 0 330 230">
  <defs>
    <style>
      .cls-1 {
        fill: #fff;
        stroke-width: 0px;
      }
    </style>
  </defs>
  <g>
    <path class="cls-1" d="M34.88,0L11.41,55.25h8.38l5.1-12.46h19.32l4.88,12.46h9.77L35.39,0h-.51ZM27.89,35.5l6.85-16.76,6.63,16.76h-13.48Z"/>
    <rect class="cls-1" x="67.9" y="2.19" width="8.53" height="53.06"/>
    <path class="cls-1" d="M123.48,28.32c1.38-2.79,2.08-5.82,2.08-9.07,0-5.34-1.79-9.52-5.36-12.54-3.57-3.01-8.32-4.52-14.25-4.52h-14.94v53.06h8.53v-18.44h8.53l11.95,18.44h9.84l-12.9-20.48c2.96-1.51,5.14-3.66,6.52-6.45ZM114.51,25.84c-1.53,1.87-4,2.81-7.4,2.81h-7.58V10.35h7.87c2.28,0,4.13.5,5.54,1.49,1.41,1,2.4,2.19,2.99,3.57s.88,2.76.88,4.12c0,2.33-.77,4.43-2.3,6.3Z"/>
    <path class="cls-1" d="M154.85,2.19h-15.01v53.06h8.53v-18.44h7.65c4.23,0,7.69-.84,10.39-2.51,2.7-1.68,4.65-3.84,5.87-6.49,1.21-2.65,1.82-5.5,1.82-8.56,0-5.34-1.7-9.52-5.1-12.54-3.4-3.01-8.12-4.52-14.14-4.52ZM164.73,23.51c-.61,1.43-1.63,2.65-3.06,3.64-1.43,1-3.32,1.49-5.65,1.49h-7.65V10.35h7.87c3.4,0,5.82.95,7.25,2.84,1.43,1.89,2.15,3.96,2.15,6.2,0,1.31-.3,2.69-.91,4.12Z"/>
    <path class="cls-1" d="M221.73,5.32c-4.15-2.48-8.66-3.72-13.52-3.72s-9.44,1.24-13.59,3.72c-4.15,2.48-7.45,5.79-9.88,9.95-2.43,4.15-3.64,8.66-3.64,13.52s1.21,9.5,3.64,13.63c2.43,4.13,5.72,7.4,9.88,9.8,4.15,2.41,8.69,3.61,13.59,3.61s9.38-1.21,13.56-3.64c4.18-2.43,7.5-5.71,9.95-9.84,2.45-4.13,3.68-8.65,3.68-13.56s-1.24-9.3-3.72-13.48c-2.48-4.18-5.79-7.51-9.95-9.99ZM224.21,38.3c-1.63,2.89-3.83,5.18-6.6,6.85-2.77,1.68-5.83,2.51-9.18,2.51s-6.52-.85-9.37-2.55c-2.84-1.7-5.09-3.98-6.74-6.85-1.65-2.87-2.48-6.02-2.48-9.48s.81-6.63,2.44-9.55c1.63-2.92,3.84-5.22,6.63-6.92,2.79-1.7,5.89-2.55,9.29-2.55s6.44.85,9.26,2.55c2.82,1.7,5.05,4.01,6.71,6.92,1.65,2.92,2.48,6.1,2.48,9.55s-.81,6.62-2.44,9.51Z"/>
    <path class="cls-1" d="M279.16,28.32c1.38-2.79,2.08-5.82,2.08-9.07,0-5.34-1.79-9.52-5.36-12.54-3.57-3.01-8.32-4.52-14.25-4.52h-14.94v53.06h8.53v-18.44h8.53l11.95,18.44h9.84l-12.9-20.48c2.96-1.51,5.14-3.66,6.52-6.45ZM270.2,25.84c-1.53,1.87-4,2.81-7.4,2.81h-7.58V10.35h7.87c2.28,0,4.13.5,5.54,1.49,1.41,1,2.4,2.19,2.99,3.57s.88,2.76.88,4.12c0,2.33-.77,4.43-2.3,6.3Z"/>
    <polygon class="cls-1" points="291.74 10.35 305.07 10.35 305.07 55.25 313.53 55.25 313.53 10.35 327.23 10.35 327.23 2.19 291.74 2.19 291.74 10.35"/>
  </g>
  <g>
    <path class="cls-1" d="M23.66,84.39h-15.01v53.06h8.53v-18.44h7.65c4.23,0,7.69-.84,10.39-2.51,2.7-1.68,4.65-3.84,5.87-6.49,1.21-2.65,1.82-5.5,1.82-8.56,0-5.34-1.7-9.52-5.1-12.54-3.4-3.01-8.12-4.52-14.14-4.52ZM33.54,105.71c-.61,1.43-1.63,2.65-3.06,3.64-1.43,1-3.32,1.49-5.65,1.49h-7.65v-18.29h7.87c3.4,0,5.82.95,7.25,2.84,1.43,1.89,2.15,3.96,2.15,6.2,0,1.31-.3,2.69-.91,4.12Z"/>
    <path class="cls-1" d="M71.11,82.2l-23.47,55.25h8.38l5.1-12.46h19.32l4.88,12.46h9.77l-23.47-55.25h-.51ZM64.11,117.7l6.85-16.76,6.63,16.76h-13.48Z"/>
    <path class="cls-1" d="M136.6,110.52c1.38-2.79,2.08-5.82,2.08-9.07,0-5.34-1.79-9.52-5.36-12.54-3.57-3.01-8.32-4.52-14.25-4.52h-14.94v53.06h8.53v-18.44h8.53l11.95,18.44h9.84l-12.9-20.48c2.96-1.51,5.14-3.66,6.52-6.45ZM127.63,108.04c-1.53,1.87-4,2.81-7.4,2.81h-7.58v-18.29h7.87c2.28,0,4.13.5,5.54,1.49,1.41,1,2.41,2.19,2.99,3.57.58,1.38.88,2.76.88,4.12,0,2.33-.77,4.43-2.3,6.3Z"/>
    <polygon class="cls-1" points="193.41 84.39 182.48 84.39 162.51 105.75 161.34 107.42 161.56 104.73 161.56 84.39 152.96 84.39 152.96 137.45 161.56 137.45 161.56 116.61 165.28 112.96 183.43 137.45 194.21 137.45 171.47 107.57 193.41 84.39"/>
    <rect class="cls-1" x="203.18" y="84.39" width="8.53" height="53.06"/>
    <polygon class="cls-1" points="264.84 120.11 226.72 82.57 226.28 82.57 226.28 137.45 234.88 137.45 234.66 102.25 272.93 139.35 273.15 139.35 273.15 84.39 264.69 84.39 264.84 120.11"/>
    <path class="cls-1" d="M311.49,118.94h9.99v8.82c-1.07.58-2.38,1.03-3.94,1.35-1.56.32-3.18.47-4.88.47-3.79,0-7.16-.75-10.1-2.26-2.94-1.51-5.22-3.63-6.85-6.38-1.63-2.74-2.44-5.92-2.44-9.51,0-6.02,1.75-10.71,5.25-14.07,3.5-3.35,8.28-5.03,14.36-5.03,1.8,0,3.9.32,6.3.95,2.41.63,4.34,1.38,5.79,2.26l2.77-7.87c-2.09-1.17-4.51-2.1-7.25-2.81-2.75-.7-5.65-1.06-8.71-1.06-4.96,0-9.51,1.09-13.67,3.28-4.15,2.19-7.46,5.42-9.91,9.69-2.45,4.28-3.68,9.4-3.68,15.38,0,4.96,1.14,9.39,3.43,13.3,2.28,3.91,5.54,6.99,9.77,9.22,4.23,2.24,9.13,3.35,14.72,3.35,3.01,0,6.33-.57,9.95-1.71,3.62-1.14,6.16-2.39,7.62-3.75v-21.79h-18.51v8.16Z"/>
  </g>
  <g>
    <path class="cls-1" d="M206.73,182.28c-1.94-1.17-4.07-1.76-6.39-1.76s-4.48.59-6.41,1.76c-1.93,1.17-3.45,2.77-4.58,4.78-1.12,2.01-1.68,4.21-1.68,6.59s.57,4.56,1.71,6.54c1.14,1.98,2.69,3.55,4.65,4.73,1.96,1.17,4.11,1.76,6.46,1.76s4.43-.58,6.34-1.74c1.91-1.16,3.43-2.73,4.55-4.73,1.12-1.99,1.68-4.18,1.68-6.56s-.57-4.58-1.71-6.59c-1.14-2.01-2.68-3.6-4.63-4.78Z"/>
    <path class="cls-1" d="M166.35,181.95c-.97-.69-2.25-1.03-3.82-1.03h-5.43v12.62h5.23c2.35,0,4.05-.65,5.1-1.94,1.06-1.29,1.58-2.74,1.58-4.35,0-.94-.2-1.89-.6-2.84-.4-.96-1.09-1.78-2.06-2.46Z"/>
    <path class="cls-1" d="M131.81,180.92h-5.43v12.62h5.28c1.61,0,2.91-.34,3.9-1.03.99-.69,1.69-1.53,2.11-2.51.42-.99.63-1.94.63-2.84,0-1.54-.5-2.97-1.48-4.27-.99-1.31-2.66-1.96-5-1.96Z"/>
    <path class="cls-1" d="M225.91,162.77h-113.18c-5.01,0-9.11,4.1-9.11,9.11v42.52c0,5.01,4.1,9.11,9.11,9.11h113.18c5.01,0,9.11-4.1,9.11-9.11v-42.52c0-5.01-4.1-9.11-9.11-9.11ZM142.87,192.97c-.84,1.83-2.19,3.32-4.05,4.48-1.86,1.16-4.25,1.73-7.17,1.73h-5.28v12.72h-5.88v-36.61h10.36c4.16,0,7.41,1.04,9.76,3.12,2.35,2.08,3.52,4.96,3.52,8.65,0,2.11-.42,4.08-1.26,5.91ZM171.23,211.9l-8.25-12.72h-5.88v12.72h-5.88v-36.61h10.31c4.09,0,7.37,1.04,9.83,3.12,2.46,2.08,3.7,4.96,3.7,8.65,0,2.25-.48,4.33-1.43,6.26-.96,1.93-2.46,3.41-4.5,4.45l8.9,14.13h-6.79ZM216.57,203c-1.69,2.85-3.98,5.11-6.86,6.79-2.88,1.68-6,2.51-9.35,2.51s-6.51-.83-9.38-2.49c-2.87-1.66-5.14-3.91-6.81-6.76-1.68-2.85-2.51-5.98-2.51-9.4s.84-6.46,2.51-9.33c1.68-2.87,3.95-5.15,6.81-6.86,2.87-1.71,5.99-2.56,9.38-2.56s6.46.85,9.33,2.56c2.87,1.71,5.15,4.01,6.86,6.89,1.71,2.88,2.56,5.98,2.56,9.3s-.85,6.5-2.54,9.35Z"/>
  </g>
</svg>