<svg xmlns="http://www.w3.org/2000/svg" width="137.192" height="92.107" viewBox="0 0 137.192 92.107">
  <g id="グループ_397" data-name="グループ 397" transform="translate(-1282.372 -1999.143)">
    <path id="パス_235" data-name="パス 235" d="M1375.122,2030.434l30.242-12.271c8.666-3.671,16.153-10.11,10.279-13.279l-7.575-1.992c-9.845-3.6-14.314-1.827-23.943,2.315l-83.516,42.23-13.059-8.853-3.349,3.859,11.533,16.58c2.153,2.808,4.674,2.563,7.948,1.22l60.987-25.2" fill="none" stroke="#fff" stroke-linecap="round" stroke-linejoin="round" stroke-width="3.659"/>
    <path id="パス_236" data-name="パス 236" d="M1378.938,2029.027l-29.591,53.155a5.682,5.682,0,0,1-2.585,2.5l-9.3,4.447a2.492,2.492,0,0,1-3.521-2.724l3.7-4.406,7.872-38.59" fill="none" stroke="#fff" stroke-linecap="round" stroke-linejoin="round" stroke-width="3.659"/>
    <path id="パス_237" data-name="パス 237" d="M1337.912,2028.212l-25.989-17.862c-7.115.429-6.707-1.948-4.906-2.39l7.172-1.76a9.087,9.087,0,0,1,4.312,0l41.819,10.425" fill="none" stroke="#fff" stroke-linecap="round" stroke-linejoin="round" stroke-width="3.659"/>
  </g>
</svg>
